<?xml version="1.0" encoding="utf-8"?>
<!-- Generator: Adobe Illustrator 22.0.1, SVG Export Plug-In . SVG Version: 6.00 Build 0)  -->
<svg version="1.1" id="Capa_1" xmlns="http://www.w3.org/2000/svg" xmlns:xlink="http://www.w3.org/1999/xlink" x="0px" y="0px"
	 viewBox="0 0 30 30" style="enable-background:new 0 0 30 30;" xml:space="preserve">
<style type="text/css">
	.st0{fill:#FFFFFF;}
	.st1{fill:#F47D7D;}
</style>
<rect y="0" class="st0" width="30" height="30"/>
<g>
	<g>
		<g>
			<path class="st1" d="M10.6,23.1c-1.9,0-3.4,1.5-3.4,3.4c0,1.9,1.5,3.4,3.4,3.4c1.9,0,3.4-1.5,3.4-3.4
				C14,24.7,12.4,23.1,10.6,23.1z M10.6,27.9c-0.7,0-1.3-0.6-1.3-1.3c0-0.7,0.6-1.3,1.3-1.3c0.7,0,1.3,0.6,1.3,1.3
				C11.9,27.3,11.3,27.9,10.6,27.9z"/>
			<path class="st1" d="M23,23.1c-1.9,0-3.4,1.5-3.4,3.4c0,1.9,1.5,3.4,3.4,3.4c1.9,0,3.4-1.5,3.4-3.4C26.4,24.7,24.9,23.1,23,23.1z
				 M23,27.9c-0.7,0-1.3-0.6-1.3-1.3c0-0.7,0.6-1.3,1.3-1.3c0.7,0,1.3,0.6,1.3,1.3C24.3,27.3,23.7,27.9,23,27.9z"/>
			<path class="st1" d="M9.1,22.1h16.3c0.6,0,1-0.5,1-1s-0.5-1-1-1H9.9l-3-18.4C6.9,1.1,6.5,0.8,6.1,0.7L2.1,0
				C1.5-0.1,1,0.3,0.9,0.9C0.8,1.4,1.1,2,1.7,2.1L5,2.7l3,18.6C8.1,21.7,8.5,22.1,9.1,22.1z"/>
		</g>
	</g>
</g>
<g>
	<g>
		<path class="st1" d="M29,6.8c-0.2-0.3-0.5-0.4-0.8-0.4H6.8v2.1h19.9l-2.2,6.7H8.3v2.1h17c0.5,0,0.9-0.3,1-0.7l2.8-8.8
			C29.2,7.4,29.2,7.1,29,6.8z"/>
	</g>
</g>
</svg>
