<?xml version="1.0" encoding="utf-8"?>
<!-- Generator: Adobe Illustrator 22.0.1, SVG Export Plug-In . SVG Version: 6.00 Build 0)  -->
<svg version="1.1" id="圖層_1" xmlns="http://www.w3.org/2000/svg" xmlns:xlink="http://www.w3.org/1999/xlink" x="0px" y="0px"
	 viewBox="0 0 30 30" style="enable-background:new 0 0 30 30;" xml:space="preserve">
<style type="text/css">
	.st0{fill:#E87979;}
</style>
<path class="st0" d="M29.7,28.2l-6.4-6.4c2-2.3,3.1-5.3,3.1-8.5C26.4,5.9,20.5,0,13.2,0S0,5.9,0,13.2s5.9,13.2,13.2,13.2
	c3.3,0,6.2-1.2,8.5-3.1l6.4,6.4c0.2,0.2,0.5,0.3,0.8,0.3s0.6-0.1,0.8-0.3C30.1,29.3,30.1,28.6,29.7,28.2z M2.2,13.2
	c0-6.1,4.9-11,11-11s11,4.9,11,11s-4.9,11-11,11S2.2,19.3,2.2,13.2z"/>
</svg>
