<?xml version="1.0" encoding="utf-8"?>
<!-- Generator: Adobe Illustrator 22.0.1, SVG Export Plug-In . SVG Version: 6.00 Build 0)  -->
<svg version="1.1" id="Capa_1" xmlns="http://www.w3.org/2000/svg" xmlns:xlink="http://www.w3.org/1999/xlink" x="0px" y="0px"
	 viewBox="0 0 30 30" style="enable-background:new 0 0 30 30;" xml:space="preserve">
<style type="text/css">
	.st0{fill:#F47D7D;}
</style>
<path class="st0" d="M3.5,30c-1.1,0-2-0.5-2.7-1.3c-0.7-0.8-0.9-1.9-0.7-2.9c0.7-3.4,2.6-6.5,5.2-8.7c1.5-1.2,3.1-2.1,4.9-2.7
	l0.2-0.1l-0.2-0.1c-2-1.5-3.2-3.9-3.2-6.3C7.1,3.6,10.6,0,15,0s7.9,3.6,7.9,7.9c0,2.5-1.2,4.8-3.2,6.3l-0.2,0.1l0.2,0.1
	c3.2,1.1,6,3.2,7.9,6c0.2,0.2,0.2,0.5,0.2,0.8c-0.1,0.3-0.2,0.5-0.5,0.7c-0.2,0.1-0.4,0.2-0.6,0.2c-0.4,0-0.7-0.2-0.9-0.5
	c-2.4-3.5-6.3-5.7-10.6-5.8c-0.1,0-0.2,0-0.3,0c-0.1,0-0.2,0-0.3,0C8.7,16,3.4,20.4,2.2,26.2c-0.1,0.4,0,0.8,0.3,1.1
	c0.1,0.2,0.5,0.5,1,0.5h23c0.5,0,0.9-0.3,1-0.5c0.3-0.3,0.4-0.7,0.3-1.1c-0.1-0.3,0-0.6,0.2-0.8c0.2-0.2,0.4-0.4,0.7-0.5
	c0.1,0,0.1,0,0.2,0c0.5,0,1,0.4,1.1,0.9c0.2,1,0,2.1-0.7,2.9c-0.7,0.8-1.6,1.3-2.7,1.3H3.5z M15.3,13.7c3.1-0.2,5.5-2.7,5.5-5.8
	c0-3.2-2.6-5.8-5.8-5.8c-3.2,0-5.8,2.6-5.8,5.8c0,3.1,2.4,5.6,5.5,5.8l0.3,0L15.3,13.7z"/>
</svg>
